<svg xmlns="http://www.w3.org/2000/svg" xmlns:xlink="http://www.w3.org/1999/xlink" width="1440" zoomAndPan="magnify" viewBox="0 0 1080 359.999987" height="480" preserveAspectRatio="xMidYMid meet" version="1.0"><defs><g/></defs><g fill="#ffffff" fill-opacity="1"><g transform="translate(83.405068, 263.93728)"><g><path d="M 139.078125 -115.984375 C 139.078125 -106.992188 136.953125 -98.566406 132.703125 -90.703125 C 128.453125 -82.847656 121.796875 -76.515625 112.734375 -71.703125 C 103.671875 -66.890625 92.238281 -64.484375 78.4375 -64.484375 L 50.296875 -64.484375 L 50.296875 0 L 16.609375 0 L 16.609375 -167.953125 L 78.4375 -167.953125 C 91.4375 -167.953125 102.503906 -165.707031 111.640625 -161.21875 C 120.785156 -156.726562 127.644531 -150.550781 132.21875 -142.6875 C 136.789062 -134.832031 139.078125 -125.929688 139.078125 -115.984375 Z M 77 -91.671875 C 86.300781 -91.671875 93.195312 -93.796875 97.6875 -98.046875 C 102.1875 -102.304688 104.4375 -108.285156 104.4375 -115.984375 C 104.4375 -132.347656 95.289062 -140.53125 77 -140.53125 L 50.296875 -140.53125 L 50.296875 -91.671875 Z M 77 -91.671875 "/></g></g></g><g fill="#ffffff" fill-opacity="1"><g transform="translate(229.703319, 263.93728)"><g><path d="M 50.296875 -112.609375 C 54.617188 -119.671875 60.269531 -125.207031 67.25 -129.21875 C 74.226562 -133.226562 82.210938 -135.234375 91.203125 -135.234375 L 91.203125 -99.859375 L 82.296875 -99.859375 C 71.703125 -99.859375 63.71875 -97.367188 58.34375 -92.390625 C 52.976562 -87.421875 50.296875 -78.757812 50.296875 -66.40625 L 50.296875 0 L 16.609375 0 L 16.609375 -133.3125 L 50.296875 -133.3125 Z M 50.296875 -112.609375 "/></g></g></g><g fill="#ffffff" fill-opacity="1"><g transform="translate(326.914634, 263.93728)"><g><path d="M 75.796875 2.171875 C 62.960938 2.171875 51.410156 -0.675781 41.140625 -6.375 C 30.878906 -12.070312 22.820312 -20.132812 16.96875 -30.5625 C 11.113281 -40.988281 8.1875 -53.019531 8.1875 -66.65625 C 8.1875 -80.289062 11.191406 -92.320312 17.203125 -102.75 C 23.222656 -113.175781 31.445312 -121.234375 41.875 -126.921875 C 52.300781 -132.617188 63.929688 -135.46875 76.765625 -135.46875 C 89.597656 -135.46875 101.226562 -132.617188 111.65625 -126.921875 C 122.082031 -121.234375 130.300781 -113.175781 136.3125 -102.75 C 142.332031 -92.320312 145.34375 -80.289062 145.34375 -66.65625 C 145.34375 -53.019531 142.253906 -40.988281 136.078125 -30.5625 C 129.898438 -20.132812 121.554688 -12.070312 111.046875 -6.375 C 100.535156 -0.675781 88.785156 2.171875 75.796875 2.171875 Z M 75.796875 -27.1875 C 81.890625 -27.1875 87.625 -28.671875 93 -31.640625 C 98.375 -34.609375 102.664062 -39.0625 105.875 -45 C 109.082031 -50.9375 110.6875 -58.15625 110.6875 -66.65625 C 110.6875 -79.320312 107.359375 -89.0625 100.703125 -95.875 C 94.046875 -102.695312 85.90625 -106.109375 76.28125 -106.109375 C 66.65625 -106.109375 58.59375 -102.695312 52.09375 -95.875 C 45.59375 -89.0625 42.34375 -79.320312 42.34375 -66.65625 C 42.34375 -53.976562 45.507812 -44.226562 51.84375 -37.40625 C 58.1875 -30.59375 66.171875 -27.1875 75.796875 -27.1875 Z M 75.796875 -27.1875 "/></g></g></g><g fill="#ffffff" fill-opacity="1"><g transform="translate(480.431485, 263.93728)"><g><path d="M 33.6875 -149.1875 C 27.59375 -149.1875 22.578125 -151.070312 18.640625 -154.84375 C 14.710938 -158.613281 12.75 -163.304688 12.75 -168.921875 C 12.75 -174.535156 14.710938 -179.226562 18.640625 -183 C 22.578125 -186.769531 27.59375 -188.65625 33.6875 -188.65625 C 39.625 -188.65625 44.515625 -186.769531 48.359375 -183 C 52.210938 -179.226562 54.140625 -174.535156 54.140625 -168.921875 C 54.140625 -163.304688 52.210938 -158.613281 48.359375 -154.84375 C 44.515625 -151.070312 39.625 -149.1875 33.6875 -149.1875 Z M 50.296875 21.890625 C 50.296875 36.648438 46.644531 47.28125 39.34375 53.78125 C 32.039062 60.28125 21.570312 63.53125 7.9375 63.53125 L -6.984375 63.53125 L -6.984375 34.890625 L 2.640625 34.890625 C 7.773438 34.890625 11.382812 33.882812 13.46875 31.875 C 15.5625 29.875 16.609375 26.628906 16.609375 22.140625 L 16.609375 -133.3125 L 50.296875 -133.3125 Z M 50.296875 21.890625 "/></g></g></g><g fill="#ffffff" fill-opacity="1"><g transform="translate(547.324439, 263.93728)"><g><path d="M 140.53125 -69.546875 C 140.53125 -64.734375 140.207031 -60.398438 139.5625 -56.546875 L 42.109375 -56.546875 C 42.910156 -46.921875 46.28125 -39.378906 52.21875 -33.921875 C 58.15625 -28.472656 65.453125 -25.75 74.109375 -25.75 C 86.617188 -25.75 95.523438 -31.125 100.828125 -41.875 L 137.15625 -41.875 C 133.300781 -29.039062 125.921875 -18.488281 115.015625 -10.21875 C 104.109375 -1.957031 90.710938 2.171875 74.828125 2.171875 C 61.992188 2.171875 50.484375 -0.675781 40.296875 -6.375 C 30.117188 -12.070312 22.179688 -20.132812 16.484375 -30.5625 C 10.785156 -40.988281 7.9375 -53.019531 7.9375 -66.65625 C 7.9375 -80.445312 10.742188 -92.554688 16.359375 -102.984375 C 21.972656 -113.410156 29.832031 -121.429688 39.9375 -127.046875 C 50.050781 -132.660156 61.679688 -135.46875 74.828125 -135.46875 C 87.503906 -135.46875 98.851562 -132.738281 108.875 -127.28125 C 118.90625 -121.832031 126.6875 -114.09375 132.21875 -104.0625 C 137.757812 -94.039062 140.53125 -82.535156 140.53125 -69.546875 Z M 105.640625 -79.171875 C 105.472656 -87.828125 102.34375 -94.757812 96.25 -99.96875 C 90.15625 -105.1875 82.695312 -107.796875 73.875 -107.796875 C 65.53125 -107.796875 58.507812 -105.269531 52.8125 -100.21875 C 47.125 -95.164062 43.632812 -88.148438 42.34375 -79.171875 Z M 105.640625 -79.171875 "/></g></g></g><g fill="#ffffff" fill-opacity="1"><g transform="translate(695.788262, 263.93728)"><g><path d="M 7.9375 -66.65625 C 7.9375 -80.445312 10.742188 -92.515625 16.359375 -102.859375 C 21.972656 -113.210938 29.753906 -121.234375 39.703125 -126.921875 C 49.648438 -132.617188 61.039062 -135.46875 73.875 -135.46875 C 90.394531 -135.46875 104.066406 -131.335938 114.890625 -123.078125 C 125.722656 -114.816406 132.984375 -103.226562 136.671875 -88.3125 L 100.34375 -88.3125 C 98.414062 -94.082031 95.164062 -98.613281 90.59375 -101.90625 C 86.019531 -105.195312 80.363281 -106.84375 73.625 -106.84375 C 64 -106.84375 56.378906 -103.351562 50.765625 -96.375 C 45.148438 -89.394531 42.34375 -79.488281 42.34375 -66.65625 C 42.34375 -53.976562 45.148438 -44.148438 50.765625 -37.171875 C 56.378906 -30.191406 64 -26.703125 73.625 -26.703125 C 87.257812 -26.703125 96.164062 -32.800781 100.34375 -45 L 136.671875 -45 C 132.984375 -30.5625 125.6875 -19.085938 114.78125 -10.578125 C 103.875 -2.078125 90.238281 2.171875 73.875 2.171875 C 61.039062 2.171875 49.648438 -0.675781 39.703125 -6.375 C 29.753906 -12.070312 21.972656 -20.09375 16.359375 -30.4375 C 10.742188 -40.78125 7.9375 -52.851562 7.9375 -66.65625 Z M 7.9375 -66.65625 "/></g></g></g><g fill="#ffffff" fill-opacity="1"><g transform="translate(840.642756, 263.93728)"><g><path d="M 55.828125 -105.640625 L 55.828125 -41.140625 C 55.828125 -36.648438 56.910156 -33.398438 59.078125 -31.390625 C 61.242188 -29.390625 64.890625 -28.390625 70.015625 -28.390625 L 85.65625 -28.390625 L 85.65625 0 L 64.484375 0 C 36.085938 0 21.890625 -13.796875 21.890625 -41.390625 L 21.890625 -105.640625 L 6.015625 -105.640625 L 6.015625 -133.3125 L 21.890625 -133.3125 L 21.890625 -166.265625 L 55.828125 -166.265625 L 55.828125 -133.3125 L 85.65625 -133.3125 L 85.65625 -105.640625 Z M 55.828125 -105.640625 "/></g></g></g><g fill="#ffffff" fill-opacity="1"><g transform="translate(934.004061, 263.93728)"><g><path d="M 31.515625 1.6875 C 25.421875 1.6875 20.410156 -0.195312 16.484375 -3.96875 C 12.554688 -7.738281 10.59375 -12.429688 10.59375 -18.046875 C 10.59375 -23.660156 12.554688 -28.351562 16.484375 -32.125 C 20.410156 -35.894531 25.421875 -37.78125 31.515625 -37.78125 C 37.453125 -37.78125 42.34375 -35.894531 46.1875 -32.125 C 50.039062 -28.351562 51.96875 -23.660156 51.96875 -18.046875 C 51.96875 -12.429688 50.039062 -7.738281 46.1875 -3.96875 C 42.34375 -0.195312 37.453125 1.6875 31.515625 1.6875 Z M 31.515625 1.6875 "/></g></g></g></svg>